<?xml version="1.0" encoding="UTF-8"?><svg id="a" xmlns="http://www.w3.org/2000/svg" viewBox="0 0 204.34 204.34"><g><rect x=".28" y=".72" width="203.78" height="202.89"/><path d="m204.34,204.34H0V0h204.34v204.34ZM.56,202.89h203.23V1.45H.56v201.45Z"/></g><g><g><polygon points="94.86 96.96 55.52 96.96 55.52 33.42 75.19 65.19 80.24 73.35 94.86 96.96" style="fill:#fff; stroke:#000; stroke-miterlimit:10; stroke-width:3px;"/><polygon points="148.82 97.05 98.74 97.05 111.26 73.87 113.23 70.22 123.78 50.7 148.82 97.05" style="fill:#fff; stroke:#000; stroke-miterlimit:10; stroke-width:3px;"/><polygon points="96.97 90.92 81.95 69.96 85.99 58.92 96.65 29.76 107.32 58.92 110.48 67.57 96.97 90.92" style="fill:#fff; stroke:#000; stroke-miterlimit:10; stroke-width:3px;"/></g><text transform="translate(57.6 129.29)" style="fill:#fff; font-family:OfeliaDisplay-Bold, &apos;Ofelia Display&apos;; font-size:24.52px; font-weight:700;"><tspan x="0" y="0">NO</tspan><tspan x="41.86" y="0" style="letter-spacing:0em;">R</tspan><tspan x="59.78" y="0">TH</tspan></text><text transform="translate(56.63 162.85)" style="fill:#fff; font-family:OfeliaDisplay-Bold, &apos;Ofelia Display&apos;; font-size:24.52px; font-weight:700;"><tspan x="0" y="0">STUDIO</tspan></text></g></svg>